2015007_C5_03_grf
version=1
nRows=12
nColumns=19
inDegrees=no
endheader
time	ground_force_1_vx	ground_force_1_vy	ground_force_1_vz	ground_force_1_px	ground_force_1_py	ground_force_1_pz	ground_force_1_mx	ground_force_1_my	ground_force_1_mz	ground_force_2_vx	ground_force_2_vy	ground_force_2_vz	ground_force_2_px	ground_force_2_py	ground_force_2_pz	ground_force_2_mx	ground_force_2_my	ground_force_2_mz
      0.34700000	     -1.64355803	    376.65535510	    -25.00786819	      0.20089072	      0.00000000	     -0.15998480	      0.00000000	      3.18669818	      0.00000000	      0.00000000	      0.00000000	      0.00000000	      0.00000000	      0.00000000	      0.00000000	      0.00000000	      0.00000000	      0.00000000
      0.34800000	     -1.38914119	    379.80863452	    -25.21314658	      0.20148023	      0.00000000	     -0.15995735	      0.00000000	      3.18651051	      0.00000000	      0.00000000	      0.00000000	      0.00000000	      0.00000000	      0.00000000	      0.00000000	      0.00000000	      0.00000000	      0.00000000
      0.34900000	     -1.12568220	    383.01582634	    -25.43044835	      0.20206205	      0.00000000	     -0.15993063	     -0.00000000	      3.18480367	      0.00000000	      0.00000000	      0.00000000	      0.00000000	      0.00000000	      0.00000000	      0.00000000	      0.00000000	      0.00000000	      0.00000000
      0.35000000	     -0.85475657	    386.26569510	    -25.65709315	      0.20263739	      0.00000000	     -0.15990458	     -0.00000000	      3.18188545	      0.00000000	      0.00000000	      0.00000000	      0.00000000	      0.00000000	      0.00000000	      0.00000000	      0.00000000	      0.00000000	      0.00000000
      0.35100000	     -0.57418925	    389.56823945	    -25.89500416	      0.20320426	      0.00000000	     -0.15987951	      0.00000000	      3.17747228	      0.00000000	      0.00000000	      0.00000000	      0.00000000	      0.00000000	      0.00000000	      0.00000000	      0.00000000	      0.00000000	      0.00000000
      0.35200000	     -0.28565011	    392.91238785	    -26.14154667	      0.20376403	      0.00000000	     -0.15985533	      0.00000000	      3.17188779	      0.00000000	      0.00000000	      0.00000000	      0.00000000	      0.00000000	      0.00000000	      0.00000000	      0.00000000	      0.00000000	      0.00000000
      0.35300000	      0.01319365	    396.30782604	    -26.39833558	      0.20431453	      0.00000000	     -0.15983246	      0.00000000	      3.16488302	      0.00000000	      0.00000000	      0.00000000	      0.00000000	      0.00000000	      0.00000000	      0.00000000	      0.00000000	      0.00000000	      0.00000000
      0.35400000	      0.32056964	    399.74376559	    -26.66283585	      0.20485729	      0.00000000	     -0.15981081	      0.00000000	      3.15678619	      0.00000000	      0.00000000	      0.00000000	      0.00000000	      0.00000000	      0.00000000	      0.00000000	      0.00000000	      0.00000000	      0.00000000
      0.35500000	      0.63900385	    403.22954953	    -26.93630476	      0.20539000	      0.00000000	     -0.15979093	      0.00000000	      3.14739064	      0.00000000	      0.00000000	      0.00000000	      0.00000000	      0.00000000	      0.00000000	      0.00000000	      0.00000000	      0.00000000	      0.00000000
      0.35600000	      0.96662267	    406.75461292	    -27.21637674	      0.20591435	      0.00000000	     -0.15977265	      0.00000000	      3.13701504	      0.00000000	      0.00000000	      0.00000000	      0.00000000	      0.00000000	      0.00000000	      0.00000000	      0.00000000	      0.00000000	      0.00000000
      0.35700000	      1.30618014	    410.32786667	    -27.50392817	      0.20642787	      0.00000000	     -0.15975663	      0.00000000	      3.12549656	      0.00000000	      0.00000000	      0.00000000	      0.00000000	      0.00000000	      0.00000000	      0.00000000	      0.00000000	      0.00000000	      0.00000000
      0.35800000	      1.65568083	    413.93896937	    -27.79681049	      0.20693244	      0.00000000	     -0.15974262	      0.00000000	      3.11313595	      0.00000000	      0.00000000	      0.00000000	      0.00000000	      0.00000000	      0.00000000	      0.00000000	      0.00000000	      0.00000000	      0.00000000
